# Blender 4.4.3
# www.blender.org
mtllib unit block_long.mtl
o Unit_block_long
v -0.873560 0.063220 -0.873560
v -1.000000 -0.063220 -1.000000
v -0.873560 0.063220 0.873560
v -1.000000 -0.063220 1.000000
v -0.873560 1.810340 -0.873560
v -1.000000 1.936780 -1.000000
v -0.873560 1.810340 0.873560
v -1.000000 1.936780 1.000000
v 0.873560 0.063220 -0.873560
v 1.000000 -0.063220 -1.000000
v 0.873560 0.063220 0.873560
v 1.000000 -0.063220 1.000000
v 0.873560 1.810340 -0.873560
v 1.000000 1.936780 -1.000000
v 0.873560 1.810340 0.873560
v 1.000000 1.936780 1.000000
v -0.936780 0.109500 -0.827280
v -0.936780 0.109500 0.827280
v -0.936780 1.764060 0.827280
v -0.936780 1.764060 -0.827280
v -0.827280 1.873560 -0.827280
v -0.827280 1.873560 0.827280
v 0.827280 1.873560 0.827280
v 0.827280 1.873560 -0.827280
v 0.936780 1.764060 -0.827280
v 0.936780 1.764060 0.827280
v 0.936780 0.109500 0.827280
v 0.936780 0.109500 -0.827280
v 0.827280 0.000000 -0.827280
v 0.827280 -0.000000 0.827280
v -0.827280 -0.000000 0.827280
v -0.827280 0.000000 -0.827280
v -0.827280 1.764060 -0.936780
v 0.827280 1.764060 -0.936780
v 0.827280 0.109500 -0.936780
v -0.827280 0.109500 -0.936780
v 0.827280 1.764060 0.936780
v -0.827280 1.764060 0.936780
v -0.827280 0.109500 0.936780
v 0.827280 0.109500 0.936780
v -0.873560 0.063220 1.126440
v -0.873560 0.063220 2.873560
v -1.000000 -0.063220 3.000000
v -0.873560 1.810340 1.126440
v -0.873560 1.810340 2.873560
v -1.000000 1.936780 3.000000
v 0.873560 0.063220 1.126440
v 0.873560 0.063220 2.873560
v 1.000000 -0.063220 3.000000
v 0.873560 1.810340 1.126440
v 0.873560 1.810340 2.873560
v 1.000000 1.936780 3.000000
v -0.936780 0.109500 1.172720
v -0.936780 0.109500 2.827280
v -0.936780 1.764060 2.827280
v -0.936780 1.764060 1.172720
v -0.827280 1.873560 1.172720
v -0.827280 1.873560 2.827280
v 0.827280 1.873560 2.827280
v 0.827280 1.873560 1.172720
v 0.936780 1.764060 1.172720
v 0.936780 1.764060 2.827280
v 0.936780 0.109500 2.827280
v 0.936780 0.109500 1.172720
v 0.827280 0.000000 1.172720
v 0.827280 -0.000000 2.827280
v -0.827280 -0.000000 2.827280
v -0.827280 0.000000 1.172720
v -0.827280 1.764060 1.063220
v 0.827280 1.764060 1.063220
v 0.827280 0.109500 1.063220
v -0.827280 0.109500 1.063220
v 0.827280 1.764060 2.936780
v -0.827280 1.764060 2.936780
v -0.827280 0.109500 2.936780
v 0.827280 0.109500 2.936780
vn 0.5907 0.8069 -0.0000
vn -0.9391 0.3437 -0.0000
vn 0.5907 -0.0000 -0.8069
vn -0.9391 -0.0000 -0.3437
vn 0.5907 -0.8069 -0.0000
vn -0.9391 -0.3437 -0.0000
vn 0.5907 -0.0000 0.8069
vn -0.9391 -0.0000 0.3437
vn 0.8069 -0.5907 -0.0000
vn 0.3437 0.9391 -0.0000
vn -0.0000 -0.5907 -0.8069
vn -0.0000 0.9391 -0.3437
vn -0.8069 -0.5907 -0.0000
vn -0.3437 0.9391 -0.0000
vn -0.0000 -0.5907 0.8069
vn -0.0000 0.9391 0.3437
vn -0.5907 -0.8069 -0.0000
vn 0.9391 -0.3437 -0.0000
vn -0.5907 -0.0000 -0.8069
vn 0.9391 -0.0000 -0.3437
vn -0.5907 0.8069 -0.0000
vn 0.9391 0.3437 -0.0000
vn -0.5907 -0.0000 0.8069
vn 0.9391 -0.0000 0.3437
vn -0.8069 0.5907 -0.0000
vn -0.3437 -0.9391 -0.0000
vn -0.0000 0.5907 -0.8069
vn -0.0000 -0.9391 -0.3437
vn 0.8069 0.5907 -0.0000
vn 0.3437 -0.9391 -0.0000
vn -0.0000 0.5907 0.8069
vn -0.0000 -0.9391 0.3437
vn -0.0000 -0.8069 0.5907
vn -0.0000 -0.3437 -0.9391
vn -0.8069 -0.0000 0.5907
vn -0.3437 -0.0000 -0.9391
vn -0.0000 0.8069 0.5907
vn -0.0000 0.3437 -0.9391
vn 0.8069 -0.0000 0.5907
vn 0.3437 -0.0000 -0.9391
vn -0.0000 -0.8069 -0.5907
vn -0.0000 -0.3437 0.9391
vn 0.8069 -0.0000 -0.5907
vn 0.3437 -0.0000 0.9391
vn -0.0000 0.8069 -0.5907
vn -0.0000 0.3437 0.9391
vn -0.8069 -0.0000 -0.5907
vn -0.3437 -0.0000 0.9391
vt 0.375000 0.000000
vt 0.625000 0.000000
vt 0.625000 0.250000
vt 0.375000 0.250000
vt 0.625000 0.500000
vt 0.375000 0.500000
vt 0.625000 0.750000
vt 0.375000 0.750000
vt 0.625000 1.000000
vt 0.375000 1.000000
vt 0.125000 0.500000
vt 0.125000 0.750000
vt 0.875000 0.500000
vt 0.875000 0.750000
s 0
usemtl black
f 17/1/1 18/2/1 3/2/1 1/1/1
f 18/2/2 17/1/2 2/1/2 4/2/2
f 18/2/3 19/3/3 7/3/3 3/2/3
f 19/3/4 18/2/4 4/2/4 8/3/4
f 19/3/5 20/4/5 5/4/5 7/3/5
f 20/4/6 19/3/6 8/3/6 6/4/6
f 20/4/7 17/1/7 1/1/7 5/4/7
f 17/1/8 20/4/8 6/4/8 2/1/8
f 21/4/9 22/3/9 7/3/9 5/4/9
f 22/3/10 21/4/10 6/4/10 8/3/10
f 22/3/11 23/5/11 15/5/11 7/3/11
f 23/5/12 22/3/12 8/3/12 16/5/12
f 23/5/13 24/6/13 13/6/13 15/5/13
f 24/6/14 23/5/14 16/5/14 14/6/14
f 24/6/15 21/4/15 5/4/15 13/6/15
f 21/4/16 24/6/16 14/6/16 6/4/16
f 25/6/17 26/5/17 15/5/17 13/6/17
f 26/5/18 25/6/18 14/6/18 16/5/18
f 26/5/19 27/7/19 11/7/19 15/5/19
f 27/7/20 26/5/20 16/5/20 12/7/20
f 27/7/21 28/8/21 9/8/21 11/7/21
f 28/8/22 27/7/22 12/7/22 10/8/22
f 28/8/23 25/6/23 13/6/23 9/8/23
f 25/6/24 28/8/24 10/8/24 14/6/24
f 29/8/25 30/7/25 11/7/25 9/8/25
f 30/7/26 29/8/26 10/8/26 12/7/26
f 30/7/27 31/9/27 3/9/27 11/7/27
f 31/9/28 30/7/28 12/7/28 4/9/28
f 31/9/29 32/10/29 1/10/29 3/9/29
f 32/10/30 31/9/30 4/9/30 2/10/30
f 32/10/31 29/8/31 9/8/31 1/10/31
f 29/8/32 32/10/32 2/10/32 10/8/32
f 33/11/33 34/6/33 13/6/33 5/11/33
f 34/6/34 33/11/34 6/11/34 14/6/34
f 34/6/35 35/8/35 9/8/35 13/6/35
f 35/8/36 34/6/36 14/6/36 10/8/36
f 35/8/37 36/12/37 1/12/37 9/8/37
f 36/12/38 35/8/38 10/8/38 2/12/38
f 36/12/39 33/11/39 5/11/39 1/12/39
f 33/11/40 36/12/40 2/12/40 6/11/40
f 37/5/41 38/13/41 7/13/41 15/5/41
f 38/13/42 37/5/42 16/5/42 8/13/42
f 38/13/43 39/14/43 3/14/43 7/13/43
f 39/14/44 38/13/44 8/13/44 4/14/44
f 39/14/45 40/7/45 11/7/45 3/14/45
f 40/7/46 39/14/46 4/14/46 12/7/46
f 40/7/47 37/5/47 15/5/47 11/7/47
f 37/5/48 40/7/48 12/7/48 16/5/48
f 53/1/1 54/2/1 42/2/1 41/1/1
f 54/2/2 53/1/2 4/1/2 43/2/2
f 54/2/3 55/3/3 45/3/3 42/2/3
f 55/3/4 54/2/4 43/2/4 46/3/4
f 55/3/5 56/4/5 44/4/5 45/3/5
f 56/4/6 55/3/6 46/3/6 8/4/6
f 56/4/7 53/1/7 41/1/7 44/4/7
f 53/1/8 56/4/8 8/4/8 4/1/8
f 57/4/9 58/3/9 45/3/9 44/4/9
f 58/3/10 57/4/10 8/4/10 46/3/10
f 58/3/11 59/5/11 51/5/11 45/3/11
f 59/5/12 58/3/12 46/3/12 52/5/12
f 59/5/13 60/6/13 50/6/13 51/5/13
f 60/6/14 59/5/14 52/5/14 16/6/14
f 60/6/15 57/4/15 44/4/15 50/6/15
f 57/4/16 60/6/16 16/6/16 8/4/16
f 61/6/17 62/5/17 51/5/17 50/6/17
f 62/5/18 61/6/18 16/6/18 52/5/18
f 62/5/19 63/7/19 48/7/19 51/5/19
f 63/7/20 62/5/20 52/5/20 49/7/20
f 63/7/21 64/8/21 47/8/21 48/7/21
f 64/8/22 63/7/22 49/7/22 12/8/22
f 64/8/23 61/6/23 50/6/23 47/8/23
f 61/6/24 64/8/24 12/8/24 16/6/24
f 65/8/25 66/7/25 48/7/25 47/8/25
f 66/7/26 65/8/26 12/8/26 49/7/26
f 66/7/27 67/9/27 42/9/27 48/7/27
f 67/9/28 66/7/28 49/7/28 43/9/28
f 67/9/29 68/10/29 41/10/29 42/9/29
f 68/10/30 67/9/30 43/9/30 4/10/30
f 68/10/31 65/8/31 47/8/31 41/10/31
f 65/8/32 68/10/32 4/10/32 12/8/32
f 69/11/33 70/6/33 50/6/33 44/11/33
f 70/6/34 69/11/34 8/11/34 16/6/34
f 70/6/35 71/8/35 47/8/35 50/6/35
f 71/8/36 70/6/36 16/6/36 12/8/36
f 71/8/37 72/12/37 41/12/37 47/8/37
f 72/12/38 71/8/38 12/8/38 4/12/38
f 72/12/39 69/11/39 44/11/39 41/12/39
f 69/11/40 72/12/40 4/12/40 8/11/40
f 73/5/41 74/13/41 45/13/41 51/5/41
f 74/13/42 73/5/42 52/5/42 46/13/42
f 74/13/43 75/14/43 42/14/43 45/13/43
f 75/14/44 74/13/44 46/13/44 43/14/44
f 75/14/45 76/7/45 48/7/45 42/14/45
f 76/7/46 75/14/46 43/14/46 49/7/46
f 76/7/47 73/5/47 51/5/47 48/7/47
f 73/5/48 76/7/48 49/7/48 52/5/48
